# xmcd
#
# Track frame offsets: 
#        150
#        34445
#        54967
#        74335
#        94667
#        111712
#        135182
#        154752
#        171345
#        194427
#        219197
#        238152
#        259067
#        277915
#        305520
#        318905
#
# Disc length: 4581 seconds
#
# Revision: 0
# Processed by: cddbd v1.5.2PL0 Copyright (c) Steve Scherf et al.
# Submitted via: ExactAudioCopy v1.0b4
#
DISCID=e511e310
DTITLE=Celine Dion - Falling Into You
DYEAR=1996
DGENRE=Pop
TTITLE0=It's All Coming Back To Me Now
TTITLE1=Because You Loved Me
TTITLE2=Falling Into You
TTITLE3=Make You Happy
TTITLE4=Seduces Me
TTITLE5=All By Myself
TTITLE6=Declaration Of Love
TTITLE7=(You Make Me Feel Like A) Natural Woman
TTITLE8=Dreamin' Of You
TTITLE9=I Love You
TTITLE10=If That's What It Takes
TTITLE11=I Don't Know
TTITLE12=River Deep, Mountain High
TTITLE13=Call The Man
TTITLE14=Fly
TTITLE15=To Love You More
EXTD=
EXTT0=
EXTT1=
EXTT2=
EXTT3=
EXTT4=
EXTT5=
EXTT6=
EXTT7=
EXTT8=
EXTT9=
EXTT10=
EXTT11=
EXTT12=
EXTT13=
EXTT14=
EXTT15=
PLAYORDER=
